# xmcd
#
# Track frame offsets:
#	150
#	16847
#	37750
#	54502
#	73373
#	89619
#	107903
#	126304
#	140244
#	154057
#
# Disc length: 2295 seconds
#
# Revision: 0
# Processed by: cddbd v1.5.2PL0 Copyright (c) Steve Scherf et al.
# Submitted via: audiograbber 1.83.01
#
DISCID=8e08f50a
DTITLE=Kenny Rogers - The Heart Of The Matter
DYEAR=1985
DGENRE=Country
TTITLE0=I Don't Want To Have To Worry
TTITLE1=The Heart Of The Matter
TTITLE2=You Made Me Feel Love
TTITLE3=Morning Desire
TTITLE4=Don't Look In My Eyes
TTITLE5=The Best Of Me
TTITLE6=Tomb Of The Unknown Love
TTITLE7=People In Love
TTITLE8=I Can't Believe Your Eyes
TTITLE9=Our Perfect Song
EXTD=
EXTT0=
EXTT1=
EXTT2=
EXTT3=
EXTT4=
EXTT5=
EXTT6=
EXTT7=
EXTT8=
EXTT9=
PLAYORDER=
